<svg width="36" height="36" viewBox="0 0 36 36" fill="none" xmlns="http://www.w3.org/2000/svg">
<path d="M33.5675 31.0825C34.6642 29.6124 35.4168 27.9148 35.7698 26.115C36.1227 24.3152 36.067 22.4591 35.6068 20.6836C35.1466 18.9082 34.2935 17.2588 33.1107 15.8571C31.9278 14.4554 30.4452 13.3372 28.7725 12.585C28.4081 10.4887 27.5707 8.50302 26.3239 6.77883C25.0771 5.05465 23.4537 3.63733 21.577 2.63459C19.7004 1.63184 17.6199 1.07004 15.4936 0.991873C13.3672 0.913708 11.2511 1.32123 9.30587 2.18349C7.36065 3.04574 5.63757 4.34003 4.26754 5.96802C2.89752 7.59601 1.91659 9.51486 1.39929 11.5788C0.881999 13.6427 0.84195 15.7974 1.28219 17.8791C1.72243 19.9608 2.63137 21.9148 3.93995 23.5925L1.50745 26.0075C1.26463 26.2536 1.10013 26.5661 1.03473 26.9056C0.969325 27.2451 1.00594 27.5963 1.13995 27.915C1.27124 28.2346 1.49418 28.5082 1.7807 28.7013C2.06721 28.8944 2.40446 28.9983 2.74995 29H12.7075C13.6991 31.0906 15.2625 32.8575 17.2168 34.0964C19.171 35.3352 21.4361 35.9952 23.75 36H34.25C34.5954 35.9983 34.9327 35.8944 35.2192 35.7013C35.5057 35.5082 35.7287 35.2346 35.86 34.915C35.994 34.5963 36.0306 34.2451 35.9652 33.9056C35.8998 33.5661 35.7353 33.2536 35.4925 33.0075L33.5675 31.0825ZM11.5 23.75C11.5024 24.3361 11.5492 24.9211 11.64 25.5H6.96745L7.57995 24.905C7.74398 24.7423 7.87417 24.5488 7.96301 24.3355C8.05186 24.1223 8.0976 23.8936 8.0976 23.6625C8.0976 23.4315 8.05186 23.2028 7.96301 22.9895C7.87417 22.7763 7.74398 22.5827 7.57995 22.42C6.59918 21.45 5.82164 20.2942 5.2928 19.0202C4.76395 17.7461 4.49442 16.3795 4.49995 15C4.49995 12.2153 5.6062 9.54454 7.57533 7.57541C9.54447 5.60628 12.2152 4.50003 15 4.50003C17.1729 4.48697 19.2953 5.15521 21.0688 6.41079C22.8423 7.66638 24.1778 9.44619 24.8875 11.5C24.5025 11.5 24.135 11.5 23.75 11.5C20.5011 11.5 17.3852 12.7907 15.0879 15.088C12.7906 17.3853 11.5 20.5011 11.5 23.75ZM29.945 32.5L30.0325 32.5875H23.75C21.7258 32.5839 19.7655 31.8786 18.203 30.5918C16.6405 29.305 15.5725 27.5163 15.1809 25.5304C14.7893 23.5445 15.0983 21.4842 16.0553 19.7006C17.0124 17.9169 18.5582 16.5203 20.4294 15.7485C22.3007 14.9767 24.3816 14.8776 26.3178 15.468C28.2539 16.0584 29.9255 17.3019 31.0477 18.9864C32.1699 20.671 32.6734 22.6926 32.4723 24.7068C32.2712 26.7209 31.3781 28.603 29.945 30.0325C29.6152 30.3556 29.4265 30.7959 29.42 31.2575C29.4209 31.4891 29.4678 31.7181 29.5579 31.9314C29.6481 32.1447 29.7796 32.338 29.945 32.5Z" fill="white"/>
</svg>
