<svg width="32" height="32" viewBox="0 0 32 32" fill="none" xmlns="http://www.w3.org/2000/svg">
<path fill-rule="evenodd" clip-rule="evenodd" d="M15.7429 3.93555C12.5361 3.93555 12.1347 3.94893 10.8752 4.00639C9.61816 4.06385 8.75939 4.26378 8.00846 4.55581C7.22132 4.85178 6.50738 5.31619 5.91702 5.91757C5.31661 6.50724 4.85191 7.22068 4.55527 8.00821C4.26482 8.75915 4.06409 9.6187 4.00663 10.8758C3.94996 12.1344 3.93579 12.5351 3.93579 15.7427C3.93579 18.9503 3.94917 19.3509 4.00663 20.6103C4.06409 21.8674 4.26403 22.7262 4.55606 23.4771C4.85202 24.2642 5.31644 24.9782 5.91781 25.5685C6.5075 26.1689 7.22093 26.6336 8.00846 26.9303C8.75939 27.2215 9.61816 27.4215 10.8752 27.4789C12.1347 27.5364 12.5361 27.5498 15.7429 27.5498C18.9497 27.5498 19.3512 27.5364 20.6106 27.4789C21.8676 27.4215 22.7264 27.2215 23.4774 26.9295C24.2645 26.6335 24.9784 26.1691 25.5688 25.5678C26.1692 24.9781 26.6339 24.2646 26.9305 23.4771C27.2218 22.7262 27.4217 21.8674 27.4792 20.6103C27.5366 19.3509 27.55 18.9495 27.55 15.7427C27.55 12.5358 27.5366 12.1344 27.4792 10.875C27.4217 9.61792 27.2218 8.75915 26.9298 8.00821C26.6333 7.22034 26.1686 6.5066 25.568 5.91678C24.9783 5.31637 24.2649 4.85167 23.4774 4.55503C22.7264 4.26457 21.8669 4.06385 20.6098 4.00639C19.3512 3.94972 18.9505 3.93555 15.7429 3.93555ZM15.7429 6.06319C18.8954 6.06319 19.2693 6.075 20.5146 6.13167C21.6654 6.18441 22.2903 6.37568 22.7067 6.53862C23.2577 6.75194 23.6513 7.00854 24.0646 7.42101C24.4778 7.83426 24.7336 8.22783 24.9469 8.77882C25.1091 9.19522 25.3012 9.82021 25.3539 10.971C25.4106 12.2163 25.4224 12.5902 25.4224 15.7427C25.4224 18.8952 25.4106 19.2691 25.3539 20.5143C25.3012 21.6651 25.1099 22.2901 24.9469 22.7065C24.758 23.2194 24.4565 23.6833 24.0646 24.0643C23.6836 24.4563 23.2196 24.7578 22.7067 24.9467C22.2903 25.1089 21.6654 25.3009 20.5146 25.3537C19.2693 25.4103 18.8962 25.4221 15.7429 25.4221C12.5896 25.4221 12.2165 25.4103 10.9713 25.3537C9.82046 25.3009 9.19547 25.1096 8.77907 24.9467C8.26621 24.7577 7.80223 24.4562 7.42125 24.0643C7.02939 23.6833 6.72788 23.2193 6.53887 22.7065C6.37671 22.2901 6.18465 21.6651 6.13191 20.5143C6.07524 19.2691 6.06343 18.8952 6.06343 15.7427C6.06343 12.5902 6.07524 12.2163 6.13191 10.971C6.18465 9.82021 6.37593 9.19522 6.53887 8.77882C6.75218 8.22783 7.00879 7.83426 7.42125 7.42101C7.80218 7.02905 8.26618 6.72752 8.77907 6.53862C9.19547 6.37647 9.82046 6.18441 10.9713 6.13167C12.2165 6.075 12.5904 6.06319 15.7429 6.06319V6.06319Z" fill="#0B0B0B"/>
<path fill-rule="evenodd" clip-rule="evenodd" d="M15.7429 19.6827C15.2256 19.6827 14.7133 19.5808 14.2353 19.3828C13.7573 19.1848 13.323 18.8946 12.9572 18.5288C12.5914 18.1629 12.3012 17.7286 12.1032 17.2507C11.9052 16.7727 11.8033 16.2604 11.8033 15.743C11.8033 15.2257 11.9052 14.7134 12.1032 14.2354C12.3012 13.7574 12.5914 13.3231 12.9572 12.9573C13.323 12.5914 13.7573 12.3012 14.2353 12.1033C14.7133 11.9053 15.2256 11.8034 15.7429 11.8034C16.7878 11.8034 17.7898 12.2184 18.5287 12.9573C19.2675 13.6961 19.6826 14.6982 19.6826 15.743C19.6826 16.7879 19.2675 17.7899 18.5287 18.5288C17.7898 19.2676 16.7878 19.6827 15.7429 19.6827V19.6827ZM15.7429 9.67416C14.1334 9.67416 12.5897 10.3136 11.4516 11.4517C10.3135 12.5898 9.67407 14.1335 9.67407 15.743C9.67407 17.3526 10.3135 18.8962 11.4516 20.0343C12.5897 21.1725 14.1334 21.8119 15.7429 21.8119C17.3525 21.8119 18.8961 21.1725 20.0343 20.0343C21.1724 18.8962 21.8118 17.3526 21.8118 15.743C21.8118 14.1335 21.1724 12.5898 20.0343 11.4517C18.8961 10.3136 17.3525 9.67416 15.7429 9.67416V9.67416ZM23.5773 9.56396C23.5773 9.94443 23.4262 10.3093 23.1572 10.5783C22.8881 10.8474 22.5232 10.9985 22.1428 10.9985C21.7623 10.9985 21.3974 10.8474 21.1284 10.5783C20.8594 10.3093 20.7082 9.94443 20.7082 9.56396C20.7082 9.18349 20.8594 8.8186 21.1284 8.54957C21.3974 8.28054 21.7623 8.12939 22.1428 8.12939C22.5232 8.12939 22.8881 8.28054 23.1572 8.54957C23.4262 8.8186 23.5773 9.18349 23.5773 9.56396" fill="#0B0B0B"/>
</svg>
