<svg width="131" height="40" viewBox="0 0 131 40" fill="none" xmlns="http://www.w3.org/2000/svg">
<path d="M130.348 0.543045H119.769L103.158 16.7878L106.009 0.543045H105.999H97.5548L93.6089 22.7272C93.2264 24.5835 93.0074 26.1634 92.736 27.6328H92.5693C92.4712 27.2102 92.3437 26.7453 92.1901 26.2512C91.8436 25.1004 91.3826 23.8228 90.9249 22.672L82.4807 0.543045H72.3529V0.539795H40.5113H40.5015H32.0671L28.1212 22.7272C27.7388 24.5802 27.5165 26.1602 27.2451 27.6328H27.0784C26.7515 26.2154 26.0944 24.3072 25.434 22.672L16.9931 0.539795H6.85214L0 39.2451H8.49653L12.3901 17.2754L13.2662 12.152H13.4297C13.7599 13.5694 14.3614 15.1494 15.0741 16.8951L23.9563 39.2451H33.6592L39.22 7.84458H50.5378L44.9443 39.2451H54.1535L59.747 7.84458H69.8062H71.0387H71.0452L65.4877 39.2451H73.9842L77.8777 17.2754L78.7506 12.152H78.9173C79.2475 13.5662 79.849 15.1494 80.5617 16.8918L89.4407 39.2418H89.8886H99.1468H99.1566L101.184 27.8506L106.94 22.2883L113.907 39.2418H124.264L114.015 16.1279L130.348 0.543045Z" fill="#0B0B0B"/>
</svg>
