<svg width="28" height="28" viewBox="0 0 28 28" fill="none" xmlns="http://www.w3.org/2000/svg">
<path d="M10.4999 2.3335C7.44325 2.3335 4.95825 4.8185 4.95825 7.87516C4.95825 10.8735 7.30325 13.3002 10.3599 13.4052C10.4533 13.3935 10.5466 13.3935 10.6166 13.4052C10.6399 13.4052 10.6516 13.4052 10.6749 13.4052C10.6866 13.4052 10.6866 13.4052 10.6983 13.4052C13.6849 13.3002 16.0299 10.8735 16.0416 7.87516C16.0416 4.8185 13.5566 2.3335 10.4999 2.3335Z" fill="#0B0B0B"/>
<path d="M16.4266 16.5084C13.1716 14.3384 7.86329 14.3384 4.58495 16.5084C3.10329 17.5 2.28662 18.8417 2.28662 20.2767C2.28662 21.7117 3.10329 23.0417 4.57329 24.0217C6.20662 25.1184 8.35329 25.6667 10.5 25.6667C12.6466 25.6667 14.7933 25.1184 16.4266 24.0217C17.8966 23.03 18.7133 21.7 18.7133 20.2534C18.7016 18.8184 17.8966 17.4884 16.4266 16.5084Z" fill="#0B0B0B"/>
<path d="M23.3217 8.56312C23.5083 10.8265 21.8983 12.8098 19.67 13.0781C19.6583 13.0781 19.6583 13.0781 19.6467 13.0781H19.6117C19.5417 13.0781 19.4717 13.0781 19.4133 13.1015C18.2817 13.1598 17.2433 12.7981 16.4617 12.1331C17.6633 11.0598 18.3517 9.44979 18.2117 7.69979C18.13 6.75479 17.8033 5.89146 17.3133 5.15646C17.7567 4.93479 18.27 4.79479 18.795 4.74812C21.0817 4.54979 23.1233 6.25312 23.3217 8.56312Z" fill="#0B0B0B"/>
<path d="M25.6551 19.3551C25.5618 20.4868 24.8384 21.4668 23.6251 22.1318C22.4584 22.7735 20.9884 23.0768 19.5301 23.0418C20.3701 22.2835 20.8601 21.3385 20.9534 20.3351C21.0701 18.8885 20.3818 17.5001 19.0051 16.3918C18.2234 15.7735 17.3134 15.2835 16.3218 14.9218C18.9001 14.1751 22.1434 14.6768 24.1384 16.2868C25.2118 17.1501 25.7601 18.2351 25.6551 19.3551Z" fill="#0B0B0B"/>
</svg>
