<svg width="29" height="28" viewBox="0 0 29 28" fill="none" xmlns="http://www.w3.org/2000/svg">
<path d="M3.82373 19.25C3.3454 19.25 2.94873 18.8533 2.94873 18.375V9.625C2.94873 9.14667 3.3454 8.75 3.82373 8.75C4.30206 8.75 4.69873 9.14667 4.69873 9.625V18.375C4.69873 18.8533 4.30206 19.25 3.82373 19.25Z" fill="#0B0B0B"/>
<path d="M9.07373 22.1668C8.5954 22.1668 8.19873 21.7702 8.19873 21.2918V6.7085C8.19873 6.23016 8.5954 5.8335 9.07373 5.8335C9.55206 5.8335 9.94873 6.23016 9.94873 6.7085V21.2918C9.94873 21.7702 9.55206 22.1668 9.07373 22.1668Z" fill="#0B0B0B"/>
<path d="M14.3237 25.0832C13.8454 25.0832 13.4487 24.6865 13.4487 24.2082V3.7915C13.4487 3.31317 13.8454 2.9165 14.3237 2.9165C14.8021 2.9165 15.1987 3.31317 15.1987 3.7915V24.2082C15.1987 24.6865 14.8021 25.0832 14.3237 25.0832Z" fill="#0B0B0B"/>
<path d="M19.5737 22.1668C19.0954 22.1668 18.6987 21.7702 18.6987 21.2918V6.7085C18.6987 6.23016 19.0954 5.8335 19.5737 5.8335C20.0521 5.8335 20.4487 6.23016 20.4487 6.7085V21.2918C20.4487 21.7702 20.0521 22.1668 19.5737 22.1668Z" fill="#0B0B0B"/>
<path d="M24.8237 19.25C24.3454 19.25 23.9487 18.8533 23.9487 18.375V9.625C23.9487 9.14667 24.3454 8.75 24.8237 8.75C25.3021 8.75 25.6987 9.14667 25.6987 9.625V18.375C25.6987 18.8533 25.3021 19.25 24.8237 19.25Z" fill="#0B0B0B"/>
</svg>
