<svg width="28" height="28" viewBox="0 0 28 28" fill="none" xmlns="http://www.w3.org/2000/svg">
<path d="M21.1633 25.2234C20.1367 25.5267 18.9233 25.6667 17.5 25.6667H10.5C9.07667 25.6667 7.86334 25.5267 6.83667 25.2234C7.09334 22.19 10.2083 19.7983 14 19.7983C17.7917 19.7983 20.9067 22.19 21.1633 25.2234Z" stroke="#292D32" stroke-width="1.5" stroke-linecap="round" stroke-linejoin="round"/>
<path d="M17.4999 2.33325H10.4999C4.66659 2.33325 2.33325 4.66659 2.33325 10.4999V17.4999C2.33325 21.9099 3.66325 24.3249 6.83659 25.2232C7.09325 22.1899 10.2083 19.7982 13.9999 19.7982C17.7916 19.7982 20.9066 22.1899 21.1633 25.2232C24.3366 24.3249 25.6666 21.9099 25.6666 17.4999V10.4999C25.6666 4.66659 23.3333 2.33325 17.4999 2.33325ZM13.9999 16.5316C11.6899 16.5316 9.82325 14.6533 9.82325 12.3433C9.82325 10.0333 11.6899 8.16659 13.9999 8.16659C16.3099 8.16659 18.1766 10.0333 18.1766 12.3433C18.1766 14.6533 16.3099 16.5316 13.9999 16.5316Z" stroke="#292D32" stroke-width="1.5" stroke-linecap="round" stroke-linejoin="round"/>
<path d="M18.1766 12.3434C18.1766 14.6534 16.3099 16.5317 13.9999 16.5317C11.6899 16.5317 9.82324 14.6534 9.82324 12.3434C9.82324 10.0334 11.6899 8.16675 13.9999 8.16675C16.3099 8.16675 18.1766 10.0334 18.1766 12.3434Z" stroke="#292D32" stroke-width="1.5" stroke-linecap="round" stroke-linejoin="round"/>
</svg>
